# xmcd CD database file
#
# Track frame offsets:
#	150
#	25075
#	45555
#
# Disc length: 982 seconds
#
# Revision: 0
# Processed by: cddbd v1.5.1PL0 Copyright (c) Steve Scherf et al.
# Submitted via: CDex 1.51
#
DISCID=1903d403
DTITLE=Soul Lovers - このままで
DYEAR=2000
DGENRE=J-pop
TTITLE0=このままでFeaturing Ryoji
TTITLE1=空
TTITLE2=If It Rains
EXTD=YEAR: 2000
EXTT0=
EXTT1=
EXTT2=
PLAYORDER=
